<mxfile host="Electron" agent="Mozilla/5.0 (X11; Linux x86_64) AppleWebKit/537.36 (KHTML, like Gecko) draw.io/24.7.17 Chrome/128.0.6613.36 Electron/32.0.1 Safari/537.36" version="24.7.17">
  <diagram name="Page-1" id="9HjjmMsiKM4-cmNMrhcg">
    <mxGraphModel dx="1195" dy="698" grid="1" gridSize="10" guides="1" tooltips="1" connect="1" arrows="1" fold="1" page="1" pageScale="1" pageWidth="827" pageHeight="1169" math="0" shadow="0">
      <root>
        <mxCell id="0" />
        <mxCell id="1" parent="0" />
        <mxCell id="T0bCQ4MfTpCTtOg3O5xz-9" style="edgeStyle=orthogonalEdgeStyle;rounded=0;orthogonalLoop=1;jettySize=auto;html=1;exitX=0.5;exitY=1;exitDx=0;exitDy=0;entryX=0.5;entryY=0;entryDx=0;entryDy=0;endArrow=none;endFill=0;" edge="1" parent="1" source="T0bCQ4MfTpCTtOg3O5xz-1" target="T0bCQ4MfTpCTtOg3O5xz-2">
          <mxGeometry relative="1" as="geometry" />
        </mxCell>
        <mxCell id="T0bCQ4MfTpCTtOg3O5xz-1" value="Начало" style="rounded=1;whiteSpace=wrap;html=1;arcSize=50;fontSize=11;" vertex="1" parent="1">
          <mxGeometry x="40" y="60" width="160" height="40" as="geometry" />
        </mxCell>
        <mxCell id="T0bCQ4MfTpCTtOg3O5xz-2" value="Найти наибольшие и наименьшие значения x и y, не выходящие за границы экрана (xmin, xmax, ymin, ymax)" style="rounded=0;whiteSpace=wrap;html=1;fontSize=11;" vertex="1" parent="1">
          <mxGeometry x="40" y="130" width="160" height="70" as="geometry" />
        </mxCell>
        <mxCell id="T0bCQ4MfTpCTtOg3O5xz-7" value="Цикл по x от xmin до&amp;nbsp;&lt;div style=&quot;font-size: 11px;&quot;&gt;xmax&amp;nbsp;&lt;span style=&quot;background-color: initial; font-size: 11px;&quot;&gt;с шагом 1&lt;/span&gt;&lt;/div&gt;" style="verticalLabelPosition=middle;verticalAlign=middle;html=1;shape=mxgraph.basic.polygon;polyCoords=[[0.25,0],[0.75,0],[1,0.25],[1,0.5],[0.69,0.5],[0.25,0.5],[0,0.5],[0,0.25]];polyline=0;labelBackgroundColor=none;labelPosition=center;align=center;spacingTop=-75;spacing=2;fontSize=11;" vertex="1" parent="1">
          <mxGeometry x="40" y="230" width="160" height="160" as="geometry" />
        </mxCell>
        <mxCell id="T0bCQ4MfTpCTtOg3O5xz-8" value="Цикл по y от ymin до&amp;nbsp;&lt;div style=&quot;font-size: 11px;&quot;&gt;ymax&amp;nbsp;&lt;span style=&quot;background-color: initial; font-size: 11px;&quot;&gt;с шагом 1&lt;/span&gt;&lt;/div&gt;" style="verticalLabelPosition=middle;verticalAlign=middle;html=1;shape=mxgraph.basic.polygon;polyCoords=[[0.25,0],[0.75,0],[1,0.25],[1,0.5],[0.69,0.5],[0.25,0.5],[0,0.5],[0,0.25]];polyline=0;labelBackgroundColor=none;labelPosition=center;align=center;spacingTop=-75;spacing=2;fontSize=11;" vertex="1" parent="1">
          <mxGeometry x="40" y="340" width="160" height="160" as="geometry" />
        </mxCell>
        <mxCell id="T0bCQ4MfTpCTtOg3O5xz-10" style="edgeStyle=orthogonalEdgeStyle;shape=connector;rounded=0;orthogonalLoop=1;jettySize=auto;html=1;exitX=0.5;exitY=1;exitDx=0;exitDy=0;entryX=0.505;entryY=0.007;entryDx=0;entryDy=0;entryPerimeter=0;strokeColor=default;align=center;verticalAlign=middle;fontFamily=Helvetica;fontSize=11;fontColor=default;labelBackgroundColor=default;endArrow=none;endFill=0;" edge="1" parent="1" target="T0bCQ4MfTpCTtOg3O5xz-7">
          <mxGeometry relative="1" as="geometry">
            <mxPoint x="120" y="200" as="sourcePoint" />
          </mxGeometry>
        </mxCell>
        <mxCell id="T0bCQ4MfTpCTtOg3O5xz-11" style="edgeStyle=orthogonalEdgeStyle;shape=connector;rounded=0;orthogonalLoop=1;jettySize=auto;html=1;entryX=0.5;entryY=0;entryDx=0;entryDy=0;entryPerimeter=0;strokeColor=default;align=center;verticalAlign=middle;fontFamily=Helvetica;fontSize=11;fontColor=default;labelBackgroundColor=default;endArrow=none;endFill=0;" edge="1" parent="1" target="T0bCQ4MfTpCTtOg3O5xz-8">
          <mxGeometry relative="1" as="geometry">
            <mxPoint x="120" y="310" as="sourcePoint" />
            <mxPoint x="131" y="241" as="targetPoint" />
          </mxGeometry>
        </mxCell>
        <mxCell id="T0bCQ4MfTpCTtOg3O5xz-13" value="Найти барицентрические координаты точки (x, y, z) (базисом считать точки полигона)" style="rounded=0;whiteSpace=wrap;html=1;fontSize=11;" vertex="1" parent="1">
          <mxGeometry x="40" y="450" width="160" height="60" as="geometry" />
        </mxCell>
        <mxCell id="T0bCQ4MfTpCTtOg3O5xz-14" style="edgeStyle=orthogonalEdgeStyle;shape=connector;rounded=0;orthogonalLoop=1;jettySize=auto;html=1;exitX=0.5;exitY=0;exitDx=0;exitDy=0;entryX=0.5;entryY=0.492;entryDx=0;entryDy=0;entryPerimeter=0;strokeColor=default;align=center;verticalAlign=middle;fontFamily=Helvetica;fontSize=11;fontColor=default;labelBackgroundColor=default;endArrow=none;endFill=0;" edge="1" parent="1" source="T0bCQ4MfTpCTtOg3O5xz-13" target="T0bCQ4MfTpCTtOg3O5xz-8">
          <mxGeometry relative="1" as="geometry" />
        </mxCell>
        <mxCell id="T0bCQ4MfTpCTtOg3O5xz-18" style="edgeStyle=orthogonalEdgeStyle;shape=connector;rounded=0;orthogonalLoop=1;jettySize=auto;html=1;exitX=0;exitY=0.5;exitDx=0;exitDy=0;entryX=0.5;entryY=0;entryDx=0;entryDy=0;strokeColor=default;align=center;verticalAlign=middle;fontFamily=Helvetica;fontSize=11;fontColor=default;labelBackgroundColor=default;endArrow=classic;endFill=1;" edge="1" parent="1" source="T0bCQ4MfTpCTtOg3O5xz-15" target="T0bCQ4MfTpCTtOg3O5xz-17">
          <mxGeometry relative="1" as="geometry" />
        </mxCell>
        <mxCell id="T0bCQ4MfTpCTtOg3O5xz-28" style="edgeStyle=orthogonalEdgeStyle;shape=connector;rounded=0;orthogonalLoop=1;jettySize=auto;html=1;exitX=1;exitY=0.5;exitDx=0;exitDy=0;strokeColor=default;align=center;verticalAlign=middle;fontFamily=Helvetica;fontSize=11;fontColor=default;labelBackgroundColor=default;endArrow=none;endFill=0;" edge="1" parent="1" source="T0bCQ4MfTpCTtOg3O5xz-15">
          <mxGeometry relative="1" as="geometry">
            <mxPoint x="670" y="680" as="targetPoint" />
          </mxGeometry>
        </mxCell>
        <mxCell id="T0bCQ4MfTpCTtOg3O5xz-35" style="edgeStyle=orthogonalEdgeStyle;shape=connector;rounded=0;orthogonalLoop=1;jettySize=auto;html=1;exitX=0.5;exitY=0;exitDx=0;exitDy=0;entryX=0.5;entryY=1;entryDx=0;entryDy=0;strokeColor=default;align=center;verticalAlign=middle;fontFamily=Helvetica;fontSize=11;fontColor=default;labelBackgroundColor=default;endArrow=none;endFill=0;" edge="1" parent="1" source="T0bCQ4MfTpCTtOg3O5xz-15" target="T0bCQ4MfTpCTtOg3O5xz-34">
          <mxGeometry relative="1" as="geometry" />
        </mxCell>
        <mxCell id="T0bCQ4MfTpCTtOg3O5xz-15" value="Барицентрические&amp;nbsp;&lt;div&gt;координаты в диапазоне&amp;nbsp;&lt;/div&gt;&lt;div&gt;от 0 до 1&lt;/div&gt;" style="rhombus;whiteSpace=wrap;html=1;fontFamily=Helvetica;fontSize=11;fontColor=default;labelBackgroundColor=none;" vertex="1" parent="1">
          <mxGeometry x="470" y="130" width="160" height="100" as="geometry" />
        </mxCell>
        <mxCell id="T0bCQ4MfTpCTtOg3O5xz-21" style="edgeStyle=orthogonalEdgeStyle;shape=connector;rounded=0;orthogonalLoop=1;jettySize=auto;html=1;exitX=0.5;exitY=1;exitDx=0;exitDy=0;entryX=0.5;entryY=0;entryDx=0;entryDy=0;strokeColor=default;align=center;verticalAlign=middle;fontFamily=Helvetica;fontSize=11;fontColor=default;labelBackgroundColor=default;endArrow=none;endFill=0;" edge="1" parent="1" source="T0bCQ4MfTpCTtOg3O5xz-17" target="T0bCQ4MfTpCTtOg3O5xz-20">
          <mxGeometry relative="1" as="geometry" />
        </mxCell>
        <mxCell id="T0bCQ4MfTpCTtOg3O5xz-17" value="Найти координату z точки&lt;div style=&quot;font-size: 11px;&quot;&gt;(x, y, z)&lt;/div&gt;" style="rounded=0;whiteSpace=wrap;html=1;fontSize=11;" vertex="1" parent="1">
          <mxGeometry x="350" y="260" width="160" height="60" as="geometry" />
        </mxCell>
        <mxCell id="T0bCQ4MfTpCTtOg3O5xz-19" value="Да" style="text;html=1;align=center;verticalAlign=middle;whiteSpace=wrap;rounded=0;fontFamily=Helvetica;fontSize=11;fontColor=default;labelBackgroundColor=default;" vertex="1" parent="1">
          <mxGeometry x="420" y="145" width="60" height="30" as="geometry" />
        </mxCell>
        <mxCell id="T0bCQ4MfTpCTtOg3O5xz-24" style="edgeStyle=orthogonalEdgeStyle;shape=connector;rounded=0;orthogonalLoop=1;jettySize=auto;html=1;exitX=0;exitY=0.5;exitDx=0;exitDy=0;entryX=0.5;entryY=0;entryDx=0;entryDy=0;strokeColor=default;align=center;verticalAlign=middle;fontFamily=Helvetica;fontSize=11;fontColor=default;labelBackgroundColor=default;endArrow=classic;endFill=1;" edge="1" parent="1" source="T0bCQ4MfTpCTtOg3O5xz-20" target="T0bCQ4MfTpCTtOg3O5xz-22">
          <mxGeometry relative="1" as="geometry" />
        </mxCell>
        <mxCell id="T0bCQ4MfTpCTtOg3O5xz-26" style="edgeStyle=orthogonalEdgeStyle;shape=connector;rounded=0;orthogonalLoop=1;jettySize=auto;html=1;exitX=1;exitY=0.5;exitDx=0;exitDy=0;strokeColor=default;align=center;verticalAlign=middle;fontFamily=Helvetica;fontSize=11;fontColor=default;labelBackgroundColor=default;endArrow=none;endFill=0;" edge="1" parent="1" source="T0bCQ4MfTpCTtOg3O5xz-20">
          <mxGeometry relative="1" as="geometry">
            <mxPoint x="550" y="590" as="targetPoint" />
          </mxGeometry>
        </mxCell>
        <mxCell id="T0bCQ4MfTpCTtOg3O5xz-20" value="z &amp;lt; buf[x][y]" style="rhombus;whiteSpace=wrap;html=1;fontFamily=Helvetica;fontSize=11;fontColor=default;labelBackgroundColor=none;" vertex="1" parent="1">
          <mxGeometry x="350" y="350" width="160" height="60" as="geometry" />
        </mxCell>
        <mxCell id="T0bCQ4MfTpCTtOg3O5xz-39" style="edgeStyle=orthogonalEdgeStyle;shape=connector;rounded=0;orthogonalLoop=1;jettySize=auto;html=1;exitX=0.5;exitY=1;exitDx=0;exitDy=0;entryX=0.5;entryY=0;entryDx=0;entryDy=0;strokeColor=default;align=center;verticalAlign=middle;fontFamily=Helvetica;fontSize=11;fontColor=default;labelBackgroundColor=default;endArrow=none;endFill=0;" edge="1" parent="1" source="T0bCQ4MfTpCTtOg3O5xz-22" target="T0bCQ4MfTpCTtOg3O5xz-38">
          <mxGeometry relative="1" as="geometry" />
        </mxCell>
        <mxCell id="T0bCQ4MfTpCTtOg3O5xz-22" value="buf[x][y] = z" style="rounded=0;whiteSpace=wrap;html=1;fontSize=11;" vertex="1" parent="1">
          <mxGeometry x="230" y="440" width="160" height="40" as="geometry" />
        </mxCell>
        <mxCell id="T0bCQ4MfTpCTtOg3O5xz-27" style="edgeStyle=orthogonalEdgeStyle;shape=connector;rounded=0;orthogonalLoop=1;jettySize=auto;html=1;exitX=0.5;exitY=1;exitDx=0;exitDy=0;strokeColor=default;align=center;verticalAlign=middle;fontFamily=Helvetica;fontSize=11;fontColor=default;labelBackgroundColor=default;endArrow=none;endFill=0;" edge="1" parent="1" source="T0bCQ4MfTpCTtOg3O5xz-23">
          <mxGeometry relative="1" as="geometry">
            <mxPoint x="430" y="680" as="targetPoint" />
          </mxGeometry>
        </mxCell>
        <mxCell id="T0bCQ4MfTpCTtOg3O5xz-23" value="draw(x, y, color, I)" style="rounded=0;whiteSpace=wrap;html=1;fontSize=11;" vertex="1" parent="1">
          <mxGeometry x="230" y="580" width="160" height="40" as="geometry" />
        </mxCell>
        <mxCell id="T0bCQ4MfTpCTtOg3O5xz-29" value="" style="endArrow=none;html=1;rounded=0;strokeColor=default;align=center;verticalAlign=middle;fontFamily=Helvetica;fontSize=11;fontColor=default;labelBackgroundColor=default;edgeStyle=orthogonalEdgeStyle;" edge="1" parent="1">
          <mxGeometry width="50" height="50" relative="1" as="geometry">
            <mxPoint x="430" y="650" as="sourcePoint" />
            <mxPoint x="550" y="590" as="targetPoint" />
          </mxGeometry>
        </mxCell>
        <mxCell id="T0bCQ4MfTpCTtOg3O5xz-30" value="" style="endArrow=none;html=1;rounded=0;strokeColor=default;align=center;verticalAlign=middle;fontFamily=Helvetica;fontSize=11;fontColor=default;labelBackgroundColor=default;edgeStyle=orthogonalEdgeStyle;" edge="1" parent="1">
          <mxGeometry width="50" height="50" relative="1" as="geometry">
            <mxPoint x="430" y="680" as="sourcePoint" />
            <mxPoint x="670" y="680" as="targetPoint" />
          </mxGeometry>
        </mxCell>
        <mxCell id="T0bCQ4MfTpCTtOg3O5xz-31" value="Конец" style="rounded=1;whiteSpace=wrap;html=1;arcSize=50;fontSize=11;" vertex="1" parent="1">
          <mxGeometry x="470" y="930" width="160" height="40" as="geometry" />
        </mxCell>
        <mxCell id="T0bCQ4MfTpCTtOg3O5xz-36" style="edgeStyle=orthogonalEdgeStyle;shape=connector;rounded=0;orthogonalLoop=1;jettySize=auto;html=1;exitX=0.5;exitY=0;exitDx=0;exitDy=0;entryX=0.5;entryY=1;entryDx=0;entryDy=0;strokeColor=default;align=center;verticalAlign=middle;fontFamily=Helvetica;fontSize=11;fontColor=default;labelBackgroundColor=default;endArrow=none;endFill=0;" edge="1" parent="1" source="T0bCQ4MfTpCTtOg3O5xz-33" target="T0bCQ4MfTpCTtOg3O5xz-13">
          <mxGeometry relative="1" as="geometry" />
        </mxCell>
        <mxCell id="T0bCQ4MfTpCTtOg3O5xz-33" value="А" style="ellipse;whiteSpace=wrap;html=1;aspect=fixed;fontFamily=Helvetica;fontSize=11;fontColor=default;labelBackgroundColor=default;" vertex="1" parent="1">
          <mxGeometry x="100" y="540" width="40" height="40" as="geometry" />
        </mxCell>
        <mxCell id="T0bCQ4MfTpCTtOg3O5xz-34" value="А" style="ellipse;whiteSpace=wrap;html=1;aspect=fixed;fontFamily=Helvetica;fontSize=11;fontColor=default;labelBackgroundColor=default;" vertex="1" parent="1">
          <mxGeometry x="530" y="60" width="40" height="40" as="geometry" />
        </mxCell>
        <mxCell id="T0bCQ4MfTpCTtOg3O5xz-37" value="Да" style="text;html=1;align=center;verticalAlign=middle;whiteSpace=wrap;rounded=0;fontFamily=Helvetica;fontSize=11;fontColor=default;labelBackgroundColor=default;" vertex="1" parent="1">
          <mxGeometry x="300" y="350" width="60" height="30" as="geometry" />
        </mxCell>
        <mxCell id="T0bCQ4MfTpCTtOg3O5xz-40" style="edgeStyle=orthogonalEdgeStyle;shape=connector;rounded=0;orthogonalLoop=1;jettySize=auto;html=1;exitX=0.5;exitY=1;exitDx=0;exitDy=0;entryX=0.5;entryY=0;entryDx=0;entryDy=0;strokeColor=default;align=center;verticalAlign=middle;fontFamily=Helvetica;fontSize=11;fontColor=default;labelBackgroundColor=default;endArrow=none;endFill=0;" edge="1" parent="1" source="T0bCQ4MfTpCTtOg3O5xz-38" target="T0bCQ4MfTpCTtOg3O5xz-23">
          <mxGeometry relative="1" as="geometry" />
        </mxCell>
        <mxCell id="T0bCQ4MfTpCTtOg3O5xz-38" value="Найти интенсивность I точки&amp;nbsp;&lt;span style=&quot;background-color: initial; font-size: 11px;&quot;&gt;(x, y, z)&lt;/span&gt;" style="rounded=0;whiteSpace=wrap;html=1;fontSize=11;" vertex="1" parent="1">
          <mxGeometry x="230" y="510" width="160" height="40" as="geometry" />
        </mxCell>
        <mxCell id="T0bCQ4MfTpCTtOg3O5xz-42" value="Конец цикла по y" style="verticalLabelPosition=middle;verticalAlign=middle;html=1;shape=mxgraph.basic.polygon;polyCoords=[[0.25,0.5],[0.75,0.5],[1,0.5],[1,0.75],[0.75,1],[0.25,1],[0,0.75],[0,0.5]];polyline=0;fontFamily=Helvetica;fontSize=11;fontColor=default;labelBackgroundColor=default;labelPosition=center;align=center;spacingTop=75;" vertex="1" parent="1">
          <mxGeometry x="470" y="630" width="160" height="160" as="geometry" />
        </mxCell>
        <mxCell id="T0bCQ4MfTpCTtOg3O5xz-43" value="Конец цикла по x" style="verticalLabelPosition=middle;verticalAlign=middle;html=1;shape=mxgraph.basic.polygon;polyCoords=[[0.25,0.5],[0.75,0.5],[1,0.5],[1,0.75],[0.75,1],[0.25,1],[0,0.75],[0,0.5]];polyline=0;fontFamily=Helvetica;fontSize=11;fontColor=default;labelBackgroundColor=default;labelPosition=center;align=center;spacingTop=75;" vertex="1" parent="1">
          <mxGeometry x="470" y="740" width="160" height="160" as="geometry" />
        </mxCell>
        <mxCell id="T0bCQ4MfTpCTtOg3O5xz-44" style="edgeStyle=orthogonalEdgeStyle;shape=connector;rounded=0;orthogonalLoop=1;jettySize=auto;html=1;exitX=0.5;exitY=0;exitDx=0;exitDy=0;entryX=0.5;entryY=1.002;entryDx=0;entryDy=0;entryPerimeter=0;strokeColor=default;align=center;verticalAlign=middle;fontFamily=Helvetica;fontSize=11;fontColor=default;labelBackgroundColor=default;endArrow=none;endFill=0;" edge="1" parent="1" source="T0bCQ4MfTpCTtOg3O5xz-31" target="T0bCQ4MfTpCTtOg3O5xz-43">
          <mxGeometry relative="1" as="geometry" />
        </mxCell>
        <mxCell id="T0bCQ4MfTpCTtOg3O5xz-45" style="edgeStyle=orthogonalEdgeStyle;shape=connector;rounded=0;orthogonalLoop=1;jettySize=auto;html=1;strokeColor=default;align=center;verticalAlign=middle;fontFamily=Helvetica;fontSize=11;fontColor=default;labelBackgroundColor=default;endArrow=none;endFill=0;" edge="1" parent="1">
          <mxGeometry relative="1" as="geometry">
            <mxPoint x="550" y="710" as="sourcePoint" />
            <mxPoint x="550" y="680" as="targetPoint" />
          </mxGeometry>
        </mxCell>
        <mxCell id="T0bCQ4MfTpCTtOg3O5xz-46" style="edgeStyle=orthogonalEdgeStyle;shape=connector;rounded=0;orthogonalLoop=1;jettySize=auto;html=1;strokeColor=default;align=center;verticalAlign=middle;fontFamily=Helvetica;fontSize=11;fontColor=default;labelBackgroundColor=default;endArrow=none;endFill=0;exitX=0.5;exitY=0.486;exitDx=0;exitDy=0;exitPerimeter=0;" edge="1" parent="1" source="T0bCQ4MfTpCTtOg3O5xz-43">
          <mxGeometry relative="1" as="geometry">
            <mxPoint x="560" y="720" as="sourcePoint" />
            <mxPoint x="550" y="790" as="targetPoint" />
          </mxGeometry>
        </mxCell>
      </root>
    </mxGraphModel>
  </diagram>
</mxfile>
